<svg width="40.000000" height="22.000000" viewBox="0 0 40 22" fill="none" xmlns="http://www.w3.org/2000/svg" xmlns:xlink="http://www.w3.org/1999/xlink">
	<desc>
			Created with Pixso.
	</desc>
	<defs/>
	<path id="DMI" d="M0 0L4.17 0Q8.2 0 9.62 0.38C10.57 0.63 11.3 1.05 11.79 1.63Q12.29 2.21 12.54 2.88Q12.66 3.21 12.72 3.57Q12.9 4.63 12.9 7.75L12.9 15.46Q12.9 18.42 12.63 19.43C12.45 20.09 12.14 20.61 11.69 20.99C11.24 21.36 10.68 21.62 10.02 21.78Q9.03 22 7.03 22L0 22L0 0ZM32.18 0L32.18 22L27.31 22L27.31 7.14L25.36 22L21.91 22L19.86 7.48L19.86 22L14.98 22L14.98 0L22.2 0C22.41 1.32 22.64 2.88 22.87 4.67L23.64 10.27L24.91 0L32.18 0ZM40 22L40 0L34.42 0L34.42 22L40 22ZM5.57 3.76L5.57 18.23C6.37 18.23 6.87 18.07 7.05 17.74C7.24 17.41 7.33 16.51 7.33 15.04L7.33 6.49Q7.33 5 7.24 4.57C7.18 4.29 7.03 4.09 6.81 3.96C6.59 3.83 6.18 3.76 5.57 3.76Z" fill="#C2C2C2" fill-opacity="1.000000" fill-rule="evenodd"/>
</svg>
