<svg width="118.000000" height="18.000000" viewBox="0 0 118 18" fill="none" xmlns="http://www.w3.org/2000/svg" xmlns:xlink="http://www.w3.org/1999/xlink">
	<desc>
			Created with Pixso.
	</desc>
	<defs>
		<clipPath id="clip2_28">
			<rect id="Twitter" rx="0.000000" width="17.000000" height="17.000000" transform="translate(0.500000 0.500000)" fill="white" fill-opacity="0"/>
		</clipPath>
		<clipPath id="clip2_27">
			<rect id="Facebook" rx="0.000000" width="17.000000" height="17.000000" transform="translate(50.500000 0.500000)" fill="white" fill-opacity="0"/>
		</clipPath>
		<clipPath id="clip2_26">
			<rect id="Instagram" rx="0.000000" width="17.000000" height="17.000000" transform="translate(100.500000 0.500000)" fill="white" fill-opacity="0"/>
		</clipPath>
	</defs>
	<rect id="Twitter" rx="0.000000" width="17.000000" height="17.000000" transform="translate(0.500000 0.500000)" fill="#FFFFFF" fill-opacity="0"/>
	<g clip-path="url(#clip2_28)">
		<path id="Vector" d="M5.66 16.31C12.45 16.31 16.16 10.68 16.16 5.8C16.16 5.64 16.16 5.48 16.15 5.32C16.88 4.8 17.5 4.15 18 3.41C17.32 3.71 16.61 3.91 15.87 3.99C16.64 3.53 17.22 2.81 17.5 1.95C16.77 2.38 15.98 2.68 15.15 2.85C14.6 2.25 13.86 1.86 13.06 1.73C12.26 1.6 11.43 1.74 10.72 2.12C10 2.5 9.43 3.11 9.09 3.85C8.76 4.59 8.68 5.42 8.86 6.21C7.39 6.14 5.95 5.76 4.64 5.09C3.33 4.43 2.18 3.5 1.25 2.36C0.78 3.17 0.63 4.13 0.84 5.05C1.06 5.96 1.61 6.76 2.39 7.29C1.8 7.27 1.23 7.11 0.72 6.82C0.72 6.84 0.72 6.85 0.72 6.87C0.72 7.72 1.01 8.55 1.55 9.21C2.09 9.87 2.84 10.32 3.68 10.49C3.13 10.64 2.56 10.66 2.01 10.55C2.25 11.29 2.71 11.93 3.32 12.39C3.94 12.85 4.69 13.1 5.46 13.12C4.15 14.15 2.54 14.7 0.87 14.7C0.58 14.7 0.29 14.68 0 14.65C1.68 15.73 3.65 16.31 5.66 16.31L5.66 16.31Z" fill="#262626" fill-opacity="1.000000" fill-rule="nonzero"/>
	</g>
	<rect id="Facebook" rx="0.000000" width="17.000000" height="17.000000" transform="translate(50.500000 0.500000)" fill="#FFFFFF" fill-opacity="0"/>
	<g clip-path="url(#clip2_27)">
		<path id="Vector" d="M67 0L50.99 0C50.44 0 50 0.44 50 0.99L50 17C50 17.55 50.44 18 50.99 18L59.61 18L59.61 11.05L57.26 11.05L57.26 8.31L59.6 8.31L59.6 6.31C59.6 3.98 61.02 2.72 63.09 2.72C63.79 2.72 64.5 2.76 65.2 2.84L65.2 5.27L63.77 5.27C62.64 5.27 62.42 5.8 62.42 6.59L62.42 8.32L65.12 8.32L64.77 11.05L62.42 11.05L62.42 18L67 18C67.55 18 68 17.55 68 17L68 0.99C68 0.44 67.55 0 67 0Z" fill="#262626" fill-opacity="1.000000" fill-rule="nonzero"/>
	</g>
	<g clip-path="url(#clip2_26)">
		<path id="Union" d="M105.289 0.0543213C106.249 0.010376 106.556 0 109 0C111.444 0 111.751 0.010376 112.711 0.0543213C113.668 0.0979004 114.323 0.250122 114.896 0.47229C115.488 0.702393 115.989 1.01001 116.49 1.5105C116.99 2.01062 117.298 2.51257 117.528 3.10461C117.75 3.67688 117.903 4.33142 117.946 5.28918C117.99 6.24915 118 6.55566 118 9C118 11.4443 117.99 11.7509 117.946 12.7108C117.903 13.6686 117.75 14.3231 117.528 14.8955C117.298 15.4874 116.99 15.989 116.49 16.4895C115.99 16.9901 115.488 17.2976 114.896 17.5277C114.323 17.7502 113.669 17.9025 112.711 17.946C111.751 17.99 111.445 18.0004 109 18.0004C106.556 18.0004 106.25 17.99 105.29 17.946C104.332 17.9025 103.677 17.7502 103.105 17.5277C102.513 17.2976 102.011 16.9901 101.511 16.4895C101.01 15.9894 100.703 15.4874 100.473 14.8955C100.25 14.3228 100.098 13.6686 100.054 12.7108C100.01 11.7509 100 11.4443 100 9C100 6.55566 100.01 6.24915 100.054 5.28918C100.098 4.33142 100.25 3.67725 100.473 3.10461C100.702 2.51294 101.01 2.01099 101.51 1.51086C102.011 1.01038 102.513 0.702759 103.104 0.472656C103.677 0.250122 104.332 0.0979004 105.289 0.0543213ZM112.637 1.67407C111.688 1.63086 111.403 1.62158 109 1.62158C106.597 1.62158 106.312 1.63086 105.363 1.67407C104.486 1.71411 104.009 1.8606 103.692 1.98389C103.272 2.14673 102.972 2.3418 102.657 2.65686C102.342 2.97205 102.147 3.27173 101.984 3.69189C101.86 4.00916 101.714 4.48572 101.674 5.36316C101.631 6.31238 101.622 6.5968 101.622 9C101.622 11.4033 101.631 11.688 101.674 12.6368C101.714 13.5143 101.86 13.9908 101.984 14.3081C102.147 14.7283 102.342 15.028 102.657 15.3431C102.972 15.6578 103.272 15.8529 103.692 16.0161C104.009 16.1394 104.486 16.2859 105.363 16.3259C106.312 16.3691 106.597 16.3784 109 16.3784C111.403 16.3784 111.688 16.3691 112.637 16.3259C113.514 16.2859 113.991 16.1394 114.308 16.0161C114.728 15.8533 115.028 15.6582 115.343 15.3431C115.658 15.028 115.853 14.7283 116.016 14.3081C116.14 13.9908 116.286 13.5143 116.326 12.6368C116.369 11.6876 116.378 11.4033 116.378 9C116.378 6.5968 116.369 6.31201 116.326 5.36316C116.286 4.48572 116.14 4.00916 116.016 3.69189C115.853 3.27173 115.658 2.97205 115.343 2.65686C115.028 2.34216 114.728 2.14709 114.308 1.98389C113.991 1.8606 113.514 1.71411 112.637 1.67407ZM113.804 5.27551C114.401 5.27551 114.884 4.79199 114.884 4.19556C114.884 3.59912 114.401 3.1156 113.804 3.1156C113.208 3.1156 112.725 3.59912 112.725 4.19556C112.725 4.79199 113.208 5.27551 113.804 5.27551ZM109 4.37854C106.448 4.37854 104.379 6.44775 104.379 9C104.379 11.5522 106.448 13.6215 109 13.6215C111.553 13.6215 113.622 11.5522 113.622 9C113.622 6.44775 111.553 4.37854 109 4.37854ZM109 11.9999C107.343 11.9999 106 10.6565 106 9C106 7.34302 107.344 6.00012 109 6.00012C110.657 6.00012 112 7.34338 112 9C112 10.6569 110.657 11.9999 109 11.9999Z" clip-rule="evenodd" fill="#262626" fill-opacity="1.000000" fill-rule="evenodd"/>
	</g>
</svg>
