<svg width="88.939209" height="53.334229" viewBox="0 0 88.9392 53.3342" fill="none" xmlns="http://www.w3.org/2000/svg" xmlns:xlink="http://www.w3.org/1999/xlink">
	<desc>
			Created with Pixso.
	</desc>
	<defs/>
	<path id="DUNDER MIFFLIN" d="M31.66 24.96L34.54 8.96e-5L28.24 8.96e-5Q26.97 8.66 26.43 17.71L25.72 8.23Q25.15 1.09 25.01 8.96e-5L18.26 8.96e-5Q16.83 10.59 16.47 17.11L15.79 8.71L15.13 8.96e-5L8.82 8.96e-5L11.72 24.96L19.79 24.96Q21.2 15.01 21.59 11.88C22.16 16.77 22.81 21.12 23.55 24.96L31.66 24.96ZM42.07 3.25L42.07 8.96e-5L35.65 8.96e-5L35.65 3.25L42.07 3.25ZM51.5 11.04L57.02 11.04L57.02 9.85C57.02 8.82 56.97 8.06 56.86 7.58C56.75 7.1 56.45 6.57 55.94 6.01C55.43 5.44 54.7 4.99 53.75 4.64C52.8 4.3 51.64 4.13 50.29 4.13Q48.23 4.13 46.69 4.76C45.65 5.18 44.92 5.78 44.49 6.56C44.06 7.33 43.84 8.54 43.84 10.17C43.84 11.32 44.04 12.32 44.44 13.16C44.84 13.99 45.96 14.93 47.79 15.95C49.97 17.17 51.17 17.9 51.41 18.14C51.64 18.39 51.75 19 51.75 19.98C51.75 20.69 51.66 21.15 51.49 21.37Q51.48 21.38 51.48 21.39Q51.21 21.71 50.56 21.71Q50.18 21.71 49.96 21.52Q49.82 21.4 49.74 21.21C49.6 20.88 49.53 20.17 49.53 19.07L49.53 17.77L44.01 17.77L44.01 18.76Q44.01 21.32 44.64 22.58Q45.27 23.85 46.96 24.59C48.09 25.08 49.44 25.33 51.03 25.33Q53.17 25.33 54.69 24.64C55.7 24.19 56.42 23.53 56.85 22.68C57.29 21.84 57.5 20.58 57.5 18.91C57.5 17.42 57.22 16.29 56.65 15.51Q55.81 14.34 53.09 13.01Q51.06 12.01 50.4 11.48C49.96 11.13 49.7 10.81 49.61 10.52C49.53 10.23 49.48 9.77 49.48 9.14C49.48 8.68 49.57 8.33 49.75 8.1C49.92 7.87 50.18 7.75 50.53 7.75C50.96 7.75 51.23 7.88 51.34 8.13C51.45 8.38 51.5 8.98 51.5 9.93L51.5 11.04ZM65.4 6.3L65.5 4.5L59.17 4.5L59.17 27.87L65.4 27.87L65.4 23.19C65.94 23.9 66.54 24.43 67.2 24.79C67.86 25.15 68.57 25.33 69.34 25.33C70.31 25.33 71.14 25.1 71.82 24.63C72.5 24.16 72.95 23.53 73.18 22.75C73.4 21.96 73.51 20.64 73.51 18.78L73.51 10.16C73.51 8.53 73.42 7.38 73.24 6.7C73.07 6.02 72.63 5.43 71.93 4.91C71.22 4.39 70.39 4.13 69.42 4.13C68.63 4.13 67.9 4.31 67.23 4.67C66.56 5.03 65.95 5.57 65.4 6.3ZM42.07 24.96L42.07 4.5L35.65 4.5L35.65 24.96L42.07 24.96ZM67.14 8.15C67.23 8.42 67.28 9.19 67.28 10.45L67.28 19.22Q67.28 20.86 67.13 21.28C67.03 21.56 66.78 21.71 66.38 21.71C65.97 21.71 65.7 21.55 65.58 21.24C65.46 20.93 65.4 20.16 65.4 18.93L65.4 10.45C65.4 9.27 65.46 8.52 65.57 8.21C65.69 7.91 65.96 7.75 66.37 7.75C66.79 7.75 67.05 7.88 67.14 8.15ZM16.86 33.61L16.86 28L10.63 28L10.63 52.96L16.86 52.96L16.86 38.36C16.86 37.32 16.93 36.62 17.06 36.28C17.2 35.93 17.45 35.75 17.84 35.75C18.25 35.75 18.51 35.92 18.63 36.26C18.75 36.6 18.81 37.36 18.81 38.56L18.81 52.96L25.04 52.96L25.04 38.85C25.04 36.93 24.95 35.6 24.78 34.88C24.61 34.16 24.14 33.52 23.38 32.96C22.61 32.41 21.69 32.13 20.6 32.13C19.89 32.13 19.22 32.25 18.6 32.5C17.98 32.74 17.4 33.11 16.86 33.61ZM7.58 32.99L7.58 29.77L1.34 29.77L1.34 32.99L2.52e-5 32.99L2.52e-5 36.23L1.34 36.23L1.34 46.62Q1.34 49.67 1.51 50.5C1.62 51.05 1.91 51.54 2.37 51.96C2.83 52.39 3.37 52.66 3.97 52.78C4.58 52.9 5.59 52.96 7.01 52.96L9.52 52.96L9.52 49.66C8.51 49.66 7.93 49.58 7.79 49.43Q7.58 49.2 7.58 47.18L7.58 36.23L9.26 36.23L9.26 32.99L7.58 32.99ZM86.99 32.99L86.99 29.77L80.75 29.77L80.75 32.99L79.41 32.99L79.41 36.23L80.75 36.23L80.75 46.62C80.75 48.66 80.8 49.95 80.92 50.5C81.03 51.05 81.32 51.54 81.78 51.96C82.24 52.39 82.78 52.66 83.38 52.78C83.99 52.9 85 52.96 86.42 52.96L88.93 52.96L88.93 49.66C87.92 49.66 87.34 49.58 87.2 49.43C87.06 49.27 86.99 48.52 86.99 47.18L86.99 36.23L88.67 36.23L88.67 32.99L86.99 32.99ZM33.22 43.09L41.29 43.09L41.29 40.38Q41.29 37.4 40.6 35.76Q40.43 35.35 40.19 34.98Q39.49 33.87 38.21 33.12C37.08 32.46 35.63 32.13 33.89 32.13Q31.74 32.13 30.09 32.95C28.99 33.5 28.2 34.29 27.72 35.33C27.24 36.36 26.99 37.77 26.99 39.56L26.99 45.53Q26.99 47.81 27.32 49C27.53 49.8 27.92 50.53 28.48 51.19C29.04 51.86 29.83 52.38 30.83 52.76C31.84 53.14 33 53.33 34.32 53.33C35.68 53.33 36.8 53.14 37.7 52.75C38.6 52.37 39.35 51.79 39.93 51.02Q40.81 49.86 41.05 48.84C41.21 48.16 41.29 47.19 41.29 45.93L41.29 44.42L35.38 44.42L35.38 47.12C35.38 48.13 35.3 48.82 35.14 49.17C34.98 49.53 34.67 49.71 34.2 49.71C33.81 49.71 33.56 49.57 33.42 49.3C33.29 49.04 33.22 48.44 33.22 47.52L33.22 43.09ZM56.78 40.22L62.66 40.22C62.66 38.3 62.47 36.82 62.09 35.77C61.71 34.72 60.94 33.85 59.79 33.16C58.64 32.47 57.25 32.13 55.63 32.13C53.99 32.13 52.61 32.47 51.47 33.17C50.32 33.86 49.58 34.65 49.23 35.54C48.88 36.42 48.7 37.73 48.7 39.47L48.7 45.28C48.7 47.27 48.92 48.81 49.34 49.9C49.77 50.98 50.5 51.83 51.53 52.43C52.55 53.03 53.95 53.33 55.71 53.33C57.08 53.33 58.24 53.11 59.17 52.67C60.11 52.24 60.87 51.59 61.45 50.73C62.03 49.87 62.37 49.03 62.48 48.22C62.59 47.4 62.65 46.17 62.66 44.54L57.11 44.54L57.11 46.98C57.11 48.04 57.03 48.75 56.88 49.14C56.74 49.52 56.45 49.71 56.03 49.71C55.67 49.71 55.4 49.52 55.21 49.16C55.03 48.79 54.93 48.25 54.93 47.52L54.93 37.86C54.93 36.97 55 36.39 55.12 36.14C55.24 35.88 55.48 35.75 55.84 35.75C56.2 35.75 56.45 35.9 56.58 36.19C56.72 36.48 56.78 37.04 56.78 37.86L56.78 40.22ZM64.23 40.42L70.08 40.42L70.08 38.28C70.08 37.14 70.13 36.43 70.23 36.16C70.33 35.89 70.6 35.75 71.02 35.75C71.39 35.75 71.65 35.91 71.81 36.24C71.97 36.56 72.05 37.26 72.05 38.33C72.05 39.18 71.98 39.74 71.83 40.02C71.69 40.3 70.6 40.84 68.55 41.64C66.64 42.38 65.44 43.03 64.96 43.58C64.47 44.14 64.23 45.18 64.23 46.71L64.23 48.4Q64.23 51.49 65.6 52.41C66.51 53.02 67.51 53.33 68.6 53.33C69.43 53.33 70.15 53.15 70.75 52.78C71.35 52.42 71.84 51.87 72.22 51.14L72.22 52.96L78.28 52.96L78.28 42.69C78.28 39.31 78.17 37.07 77.96 35.99C77.74 34.91 77.1 33.99 76.03 33.25C74.96 32.5 73.37 32.13 71.26 32.13C69.51 32.13 68.08 32.46 66.98 33.11C65.88 33.77 65.14 34.53 64.78 35.39C64.41 36.25 64.23 37.47 64.23 39.05L64.23 40.42ZM35.04 38.26L35.04 39.76L33.22 39.76L33.22 38.26C33.22 37.11 33.28 36.41 33.38 36.14Q33.41 36.07 33.46 36Q33.66 35.75 34.18 35.75C34.53 35.75 34.76 35.91 34.87 36.21Q35.04 36.68 35.04 38.26ZM70.32 45.06C70.47 44.57 71.05 43.96 72.05 43.23L72.05 47.44C72.05 48.47 71.99 49.1 71.87 49.34C71.75 49.58 71.5 49.71 71.11 49.71C70.7 49.71 70.42 49.55 70.28 49.24C70.15 48.93 70.08 48.25 70.08 47.19C70.08 46.27 70.16 45.56 70.32 45.06Z" fill="#FFFFFF" fill-opacity="1.000000" fill-rule="evenodd"/>
</svg>
